{
    "asset" : {
        "generator" : "Khronos glTF Blender I/O v1.1.45",
        "version" : "2.0"
    },
    "scene" : 0,
    "scenes" : [
        {
            "name" : "Scene",
            "nodes" : [
                0,
                1
            ]
        }
    ],
    "nodes" : [
        {
            "mesh" : 0,
            "name" : "Object_4",
            "scale" : [
                0.10000000149011612,
                0.10000003129243851,
                0.10000003129243851
            ]
        },
        {
            "mesh" : 1,
            "name" : "Object_4.001",
            "scale" : [
                0.10000000149011612,
                0.10000003129243851,
                0.10000003129243851
            ]
        }
    ],
    "materials" : [
        {
            "doubleSided" : true,
            "emissiveFactor" : [
                0,
                0,
                0
            ],
            "name" : "lambert11SG",
            "pbrMetallicRoughness" : {
                "baseColorTexture" : {
                    "index" : 0,
                    "texCoord" : 0
                },
                "metallicFactor" : 0.7227272987365723,
                "roughnessFactor" : 0.4318181276321411
            }
        },
        {
            "doubleSided" : true,
            "emissiveFactor" : [
                0,
                0,
                0
            ],
            "name" : "lambert10SG",
            "pbrMetallicRoughness" : {
                "baseColorTexture" : {
                    "index" : 1,
                    "texCoord" : 0
                },
                "metallicFactor" : 0.1409090757369995,
                "roughnessFactor" : 0.8272727131843567
            }
        },
        {
            "doubleSided" : true,
            "emissiveFactor" : [
                1,
                1,
                1
            ],
            "emissiveTexture" : {
                "index" : 2,
                "texCoord" : 0
            },
            "name" : "emit",
            "pbrMetallicRoughness" : {
                "baseColorFactor" : [
                    0,
                    0,
                    0,
                    1
                ],
                "metallicFactor" : 0,
                "roughnessFactor" : 0.15454545617103577
            }
        }
    ],
    "meshes" : [
        {
            "name" : "Mesh_1",
            "primitives" : [
                {
                    "attributes" : {
                        "POSITION" : 0,
                        "NORMAL" : 1,
                        "TEXCOORD_0" : 2
                    },
                    "indices" : 3,
                    "material" : 0
                },
                {
                    "attributes" : {
                        "POSITION" : 4,
                        "NORMAL" : 5,
                        "TEXCOORD_0" : 6
                    },
                    "indices" : 7,
                    "material" : 1
                }
            ]
        },
        {
            "name" : "Mesh_1.001",
            "primitives" : [
                {
                    "attributes" : {
                        "POSITION" : 8,
                        "NORMAL" : 9,
                        "TEXCOORD_0" : 10
                    },
                    "indices" : 11,
                    "material" : 2
                }
            ]
        }
    ],
    "textures" : [
        {
            "source" : 0
        },
        {
            "source" : 1
        },
        {
            "source" : 0
        }
    ],
    "images" : [
        {
            "mimeType" : "image/png",
            "name" : "lambert11SG_diffuse",
            "uri" : "lambert11SG_diffuse.png"
        },
        {
            "mimeType" : "image/png",
            "name" : "lambert10SG_diffuse",
            "uri" : "lambert10SG_diffuse.png"
        }
    ],
    "accessors" : [
        {
            "bufferView" : 0,
            "componentType" : 5126,
            "count" : 1009,
            "max" : [
                2.0384585857391357,
                2.2852823734283447,
                -1.0223159790039062
            ],
            "min" : [
                -1.5644044876098633,
                0.12226229906082153,
                -1.1540859937667847
            ],
            "type" : "VEC3"
        },
        {
            "bufferView" : 1,
            "componentType" : 5126,
            "count" : 1009,
            "type" : "VEC3"
        },
        {
            "bufferView" : 2,
            "componentType" : 5126,
            "count" : 1009,
            "type" : "VEC2"
        },
        {
            "bufferView" : 3,
            "componentType" : 5123,
            "count" : 1362,
            "type" : "SCALAR"
        },
        {
            "bufferView" : 4,
            "componentType" : 5126,
            "count" : 416,
            "max" : [
                2.029034376144409,
                0.18173129856586456,
                1.0318410396575928
            ],
            "min" : [
                -1.5556936264038086,
                0.0019753053784370422,
                -1.0963900089263916
            ],
            "type" : "VEC3"
        },
        {
            "bufferView" : 5,
            "componentType" : 5126,
            "count" : 416,
            "type" : "VEC3"
        },
        {
            "bufferView" : 6,
            "componentType" : 5126,
            "count" : 416,
            "type" : "VEC2"
        },
        {
            "bufferView" : 7,
            "componentType" : 5123,
            "count" : 804,
            "type" : "SCALAR"
        },
        {
            "bufferView" : 8,
            "componentType" : 5126,
            "count" : 24,
            "max" : [
                1.8237473964691162,
                2.141601324081421,
                -1.0277949571609497
            ],
            "min" : [
                -1.3496935367584229,
                0.45406532287597656,
                -1.075206995010376
            ],
            "type" : "VEC3"
        },
        {
            "bufferView" : 9,
            "componentType" : 5126,
            "count" : 24,
            "type" : "VEC3"
        },
        {
            "bufferView" : 10,
            "componentType" : 5126,
            "count" : 24,
            "type" : "VEC2"
        },
        {
            "bufferView" : 11,
            "componentType" : 5123,
            "count" : 24,
            "type" : "SCALAR"
        }
    ],
    "bufferViews" : [
        {
            "buffer" : 0,
            "byteLength" : 12108,
            "byteOffset" : 0
        },
        {
            "buffer" : 0,
            "byteLength" : 12108,
            "byteOffset" : 12108
        },
        {
            "buffer" : 0,
            "byteLength" : 8072,
            "byteOffset" : 24216
        },
        {
            "buffer" : 0,
            "byteLength" : 2724,
            "byteOffset" : 32288
        },
        {
            "buffer" : 0,
            "byteLength" : 4992,
            "byteOffset" : 35012
        },
        {
            "buffer" : 0,
            "byteLength" : 4992,
            "byteOffset" : 40004
        },
        {
            "buffer" : 0,
            "byteLength" : 3328,
            "byteOffset" : 44996
        },
        {
            "buffer" : 0,
            "byteLength" : 1608,
            "byteOffset" : 48324
        },
        {
            "buffer" : 0,
            "byteLength" : 288,
            "byteOffset" : 49932
        },
        {
            "buffer" : 0,
            "byteLength" : 288,
            "byteOffset" : 50220
        },
        {
            "buffer" : 0,
            "byteLength" : 192,
            "byteOffset" : 50508
        },
        {
            "buffer" : 0,
            "byteLength" : 48,
            "byteOffset" : 50700
        }
    ],
    "buffers" : [
        {
            "byteLength" : 50748,
            "uri" : "dell3.bin"
        }
    ]
}
