{
    "asset" : {
        "generator" : "Khronos glTF Blender I/O v1.1.45",
        "version" : "2.0"
    },
    "scene" : 0,
    "scenes" : [
        {
            "name" : "Scene",
            "nodes" : [
                0,
                1,
                6
            ]
        }
    ],
    "nodes" : [
        {
            "mesh" : 0,
            "name" : "Object_4",
            "rotation" : [
                0.7071068286895752,
                0,
                0,
                0.7071067094802856
            ],
            "scale" : [
                0.10000000149011612,
                0.1000000461935997,
                0.1000000461935997
            ]
        },
        {
            "mesh" : 1,
            "name" : "Object_4.003",
            "rotation" : [
                0.7071068286895752,
                0,
                0,
                0.7071067094802856
            ],
            "scale" : [
                0.10000000149011612,
                0.1000000461935997,
                0.1000000461935997
            ]
        },
        {
            "mesh" : 2,
            "name" : "Object_3"
        },
        {
            "mesh" : 3,
            "name" : "Object_4.004"
        },
        {
            "children" : [
                2,
                3
            ],
            "name" : "dd9c8cfdf6784dcea0067b85efab1f9d.obj.cleaner.materialmerger.gle"
        },
        {
            "children" : [
                4
            ],
            "name" : "RootNode (model correction matrix)"
        },
        {
            "children" : [
                5
            ],
            "name" : "RootNode (gltf orientation matrix)",
            "scale" : [
                0.10000000149011612,
                0.10000003129243851,
                0.10000003129243851
            ],
            "translation" : [
                0.048681557178497314,
                0,
                0
            ]
        }
    ],
    "meshes" : [
        {
            "name" : "Mesh_1",
            "primitives" : [
                {
                    "attributes" : {
                        "POSITION" : 0,
                        "NORMAL" : 1,
                        "TEXCOORD_0" : 2
                    },
                    "indices" : 3
                }
            ]
        },
        {
            "name" : "Mesh_1.003",
            "primitives" : [
                {
                    "attributes" : {
                        "POSITION" : 4,
                        "NORMAL" : 5,
                        "TEXCOORD_0" : 6
                    },
                    "indices" : 7
                }
            ]
        },
        {
            "name" : "Mesh_0",
            "primitives" : [
                {
                    "attributes" : {
                        "POSITION" : 8,
                        "NORMAL" : 9,
                        "TEXCOORD_0" : 10
                    },
                    "indices" : 11
                }
            ]
        },
        {
            "name" : "Mesh_1.004",
            "primitives" : [
                {
                    "attributes" : {
                        "POSITION" : 12,
                        "NORMAL" : 13,
                        "TEXCOORD_0" : 14
                    },
                    "indices" : 15
                }
            ]
        }
    ],
    "accessors" : [
        {
            "bufferView" : 0,
            "componentType" : 5126,
            "count" : 1491,
            "max" : [
                2.0384585857391357,
                1.0318410396575928,
                -0.0019753053784370422
            ],
            "min" : [
                -1.5644044876098633,
                -1.1540859937667847,
                -2.2852823734283447
            ],
            "type" : "VEC3"
        },
        {
            "bufferView" : 1,
            "componentType" : 5126,
            "count" : 1491,
            "type" : "VEC3"
        },
        {
            "bufferView" : 2,
            "componentType" : 5126,
            "count" : 1491,
            "type" : "VEC2"
        },
        {
            "bufferView" : 3,
            "componentType" : 5123,
            "count" : 2166,
            "type" : "SCALAR"
        },
        {
            "bufferView" : 4,
            "componentType" : 5126,
            "count" : 24,
            "max" : [
                1.8237473964691162,
                -1.0277949571609497,
                -0.45406532287597656
            ],
            "min" : [
                -1.3496935367584229,
                -1.075206995010376,
                -2.141601324081421
            ],
            "type" : "VEC3"
        },
        {
            "bufferView" : 5,
            "componentType" : 5126,
            "count" : 24,
            "type" : "VEC3"
        },
        {
            "bufferView" : 6,
            "componentType" : 5126,
            "count" : 24,
            "type" : "VEC2"
        },
        {
            "bufferView" : 7,
            "componentType" : 5123,
            "count" : 24,
            "type" : "SCALAR"
        },
        {
            "bufferView" : 8,
            "componentType" : 5126,
            "count" : 416,
            "max" : [
                5.765049934387207,
                0.271699994802475,
                1.0318410396575928
            ],
            "min" : [
                2.1803219318389893,
                0.09194400161504745,
                -1.0963900089263916
            ],
            "type" : "VEC3"
        },
        {
            "bufferView" : 9,
            "componentType" : 5126,
            "count" : 416,
            "type" : "VEC3"
        },
        {
            "bufferView" : 10,
            "componentType" : 5126,
            "count" : 416,
            "type" : "VEC2"
        },
        {
            "bufferView" : 11,
            "componentType" : 5123,
            "count" : 804,
            "type" : "SCALAR"
        },
        {
            "bufferView" : 12,
            "componentType" : 5126,
            "count" : 1037,
            "max" : [
                5.774474143981934,
                2.375251054763794,
                -1.0223159790039062
            ],
            "min" : [
                2.1716110706329346,
                0.21223099529743195,
                -1.1540859937667847
            ],
            "type" : "VEC3"
        },
        {
            "bufferView" : 13,
            "componentType" : 5126,
            "count" : 1037,
            "type" : "VEC3"
        },
        {
            "bufferView" : 14,
            "componentType" : 5126,
            "count" : 1037,
            "type" : "VEC2"
        },
        {
            "bufferView" : 15,
            "componentType" : 5123,
            "count" : 1386,
            "type" : "SCALAR"
        }
    ],
    "bufferViews" : [
        {
            "buffer" : 0,
            "byteLength" : 17892,
            "byteOffset" : 0
        },
        {
            "buffer" : 0,
            "byteLength" : 17892,
            "byteOffset" : 17892
        },
        {
            "buffer" : 0,
            "byteLength" : 11928,
            "byteOffset" : 35784
        },
        {
            "buffer" : 0,
            "byteLength" : 4332,
            "byteOffset" : 47712
        },
        {
            "buffer" : 0,
            "byteLength" : 288,
            "byteOffset" : 52044
        },
        {
            "buffer" : 0,
            "byteLength" : 288,
            "byteOffset" : 52332
        },
        {
            "buffer" : 0,
            "byteLength" : 192,
            "byteOffset" : 52620
        },
        {
            "buffer" : 0,
            "byteLength" : 48,
            "byteOffset" : 52812
        },
        {
            "buffer" : 0,
            "byteLength" : 4992,
            "byteOffset" : 52860
        },
        {
            "buffer" : 0,
            "byteLength" : 4992,
            "byteOffset" : 57852
        },
        {
            "buffer" : 0,
            "byteLength" : 3328,
            "byteOffset" : 62844
        },
        {
            "buffer" : 0,
            "byteLength" : 1608,
            "byteOffset" : 66172
        },
        {
            "buffer" : 0,
            "byteLength" : 12444,
            "byteOffset" : 67780
        },
        {
            "buffer" : 0,
            "byteLength" : 12444,
            "byteOffset" : 80224
        },
        {
            "buffer" : 0,
            "byteLength" : 8296,
            "byteOffset" : 92668
        },
        {
            "buffer" : 0,
            "byteLength" : 2772,
            "byteOffset" : 100964
        }
    ],
    "buffers" : [
        {
            "byteLength" : 103736,
            "uri" : "dell5.bin"
        }
    ]
}
